<?xml version="1.0" encoding="iso-8859-1"?>
<svg height="800px" width="800px" version="1.1" id="Capa_1" xmlns="http://www.w3.org/2000/svg" xmlns:xlink="http://www.w3.org/1999/xlink" 
	 viewBox="0 0 465.416 465.416" xml:space="preserve">
<g>
	<g>
		<path fill="#ffffff" fill-opacity="0.9" d="M359.504,403.814c-16.188,0-32.287-3.771-46.78-10.931c-6.164,3.61-13.109,5.507-20.299,5.507
			c-14.905,0-28.546-8.419-35.485-21.218c-17.376,11.594-37.46,17.692-58.541,17.692c-38.319,0-73.255-20.484-92.093-53.708
			c-0.131,0.006-0.263,0.006-0.394,0.006C47.508,341.162,0,293.648,0,235.25c0-58.404,47.508-105.912,105.912-105.912
			c9.923,0,19.822,1.438,29.524,4.284c14.416-42.705,54.782-72.02,100.255-72.02c33.295,0,64.711,15.8,84.694,42.43
			c0.609-0.03,1.211-0.048,1.826-0.048c58.398,0,105.912,47.508,105.912,105.912c0,2.369-0.084,4.744-0.257,7.202
			c23.909,20.21,37.549,49.477,37.549,80.803C465.416,356.3,417.902,403.814,359.504,403.814z "/>
	</g>
</g>
</svg>
